# xmcd
#
# Track frame offsets: 
#        150
#        18842
#        36537
#        51425
#        66150
#        86852
#        105987
#        126727
#        143627
#        171492
#        190935
#        208125
#
# Disc length: 2986 seconds
#
# Revision: 11
# Processed by: cddbd v1.5.2PL0 Copyright (c) Steve Scherf et al.
# Submitted via: ExactAudioCopy v0.95b4
#
DISCID=b90ba80c
DTITLE=Luis Miguel - Amarte es un Placer
DYEAR=1999
DGENRE=Ballad
TTITLE0=Tu Mirada
TTITLE1=Soy Yo
TTITLE2=Sol, Arena Y Mar
TTITLE3=O Tu, O Ninguna
TTITLE4=Quiero
TTITLE5=Dormir Contigo
TTITLE6=Dímelo En Un Beso
TTITLE7=No Me Fío
TTITLE8=Te Propongo Esta Noche
TTITLE9=Tu, Solo Tu
TTITLE10=Ese Momento
TTITLE11=Amarte Es Un Placer
EXTD=
EXTT0=
EXTT1=
EXTT2=
EXTT3=
EXTT4=
EXTT5=
EXTT6=
EXTT7=
EXTT8=
EXTT9=
EXTT10=
EXTT11=
PLAYORDER=
